<?xml version="1.0" standalone="no"?><!DOCTYPE svg PUBLIC "-//W3C//DTD SVG 1.1//EN" "http://www.w3.org/Graphics/SVG/1.1/DTD/svg11.dtd"><svg t="1695558679875" class="icon" viewBox="0 0 1344 1024" version="1.1" xmlns="http://www.w3.org/2000/svg" p-id="4004" xmlns:xlink="http://www.w3.org/1999/xlink" width="262.5" height="200"><path d="M957.704 456.574C905.94 426.688 835.132 401.922 774.334 384c60.796-17.922 131.606-42.688 183.37-72.574 30.61-17.674 41.098-56.816 23.426-87.426-17.674-30.61-56.816-41.1-87.426-23.426-51.764 29.886-108.616 78.824-154.536 122.512C754.044 261.476 768 187.772 768 128c0-35.346-28.654-64-64-64s-64 28.654-64 64c0 59.772 13.956 133.476 28.832 195.088-45.918-43.69-102.772-92.628-154.536-122.514-30.61-17.674-69.752-7.184-87.426 23.426-17.672 30.61-7.184 69.752 23.426 87.426C502.06 341.312 572.868 366.078 633.664 384c-60.794 17.922-131.602 42.688-183.368 72.574-30.612 17.674-41.098 56.816-23.424 87.426s56.814 41.1 87.424 23.426c51.766-29.886 108.618-78.824 154.536-122.512C653.956 506.526 640 580.228 640 640c0 35.348 28.654 64 64 64s64-28.652 64-64c0-59.772-13.956-133.474-28.832-195.088 45.92 43.69 102.772 92.626 154.536 122.514C924.316 585.1 963.456 574.61 981.13 544c17.67-30.61 7.184-69.752-23.426-87.426zM448 864c0 53.019-42.981 96-96 96s-96-42.981-96-96 42.981-96 96-96 96 42.981 96 96zM0 1024L256 0h128L128 1024z m960 0L1216 0h128l-256 1024z" p-id="4005"></path></svg>